<svg id="Layer_1" data-name="Layer 1" xmlns="http://www.w3.org/2000/svg" viewBox="0 0 219 224"><defs><style>.cls-1{fill:#fff;}</style></defs><title>logomono-lod</title><path class="cls-1" d="M173,5H46A46.14,46.14,0,0,0,0,51V178a46.14,46.14,0,0,0,46,46H173a46.14,46.14,0,0,0,46-46V51A46.14,46.14,0,0,0,173,5ZM31,80A39,39,0,0,1,94.82,49.92a18.07,18.07,0,1,0,11.33,16.76c0-.5,0-1-.07-1.49A39,39,0,1,1,31,80ZM190.26,42.31,147.45,119.8a14.51,14.51,0,0,1-11.15,7.39c8.11,26.1-12.88,58.93-53.37,81-.06-1.89-.1-3.73-.12-5.55,1.61-4.47,3.3-8.91,5-13.33q4.56-11.46,9.83-22.58c3.53-7.38,7.09-14.8,11.13-21.67l1.53-2.54,1.68-2.28c1.15-1.54,2.53-3.13,3.76-4.71l3.74-4.76c.63-.77,1.25-1.56,1.89-2.3.33-.36.64-.74,1-1a5.07,5.07,0,0,1,.5-.45l.21-.16s.07,0,.06-.06,0,0-.14-.15a.52.52,0,0,0,.71-.75.88.88,0,0,0-.51-.24,1.23,1.23,0,0,0-.32,0,3,3,0,0,0-.53,0,5.65,5.65,0,0,0-.88.24,12.16,12.16,0,0,0-1.55.7,23.41,23.41,0,0,0-2.75,1.76,42.38,42.38,0,0,0-4.82,4.12,51,51,0,0,0-4.24,4.65l-2,2.7-1.63,2.75c-4.18,7.39-7.15,15.11-10,22.87S89.12,181,86.47,188.81l-3.68,10.72c.18-58.82,25.06-74.91,39.52-79.29a14.57,14.57,0,0,1-.28-14.49l42.81-77.49a14.52,14.52,0,0,1,25.42,14.05Z"/></svg>