<svg id="Layer_1" data-name="Layer 1" xmlns="http://www.w3.org/2000/svg" viewBox="0 0 220 218"><defs><style>.cls-1{fill:#49a7e8;}</style></defs><title>logocol-round-lod</title><path class="cls-1" d="M189.51,36.49c-.15.34-.31.68-.49,1l-42.53,77a14.44,14.44,0,0,1-11.08,7.34c8.06,25.93-12.8,58.55-53,80.48-.06-1.88-.1-3.71-.12-5.51,1.6-4.44,3.28-8.85,5-13.25q4.51-11.37,9.77-22.43c3.5-7.33,7-14.7,11-21.53l1.52-2.52,1.67-2.27c1.15-1.53,2.52-3.11,3.74-4.68l3.71-4.72c.62-.77,1.24-1.55,1.88-2.28.33-.36.64-.74,1-1,.17-.17.33-.31.49-.45l.22-.16s.06,0,.06-.06,0,0-.15-.15a.52.52,0,0,0,.72-.74.9.9,0,0,0-.51-.24,2,2,0,0,0-.32,0,4,4,0,0,0-.52,0,5.36,5.36,0,0,0-.88.24,12,12,0,0,0-1.54.7,23,23,0,0,0-2.73,1.74,43,43,0,0,0-4.79,4.09,50.54,50.54,0,0,0-4.22,4.63l-1.94,2.68-1.62,2.74c-4.16,7.33-7.1,15-9.93,22.71s-5.37,15.49-8,23.23l-3.65,10.65c.18-58.43,24.9-74.42,39.27-78.77a14.47,14.47,0,0,1-.29-14.4l42.53-77a14.31,14.31,0,0,1,4.77-5.11,108,108,0,0,0-59.74-18h0C49,.43,0,49.38,0,109.21H0C0,169.05,49,218,108.79,218h0c59.83,0,108.78-48.95,108.78-108.79h0A108.31,108.31,0,0,0,189.51,36.49ZM30.8,74.94A38.74,38.74,0,0,1,94.2,45.05a18,18,0,1,0,11.25,16.66c0-.5,0-1-.06-1.49A38.75,38.75,0,1,1,30.8,74.94Z"/></svg>