<svg id="Layer_1" data-name="Layer 1" xmlns="http://www.w3.org/2000/svg" viewBox="0 0 221 226"><defs><style>.cls-1{fill:#fff;}</style></defs><title>logomono-dol</title><rect x="2" y="5" width="219" height="219" rx="46" ry="46"/><path class="cls-1" d="M138.3,127.19a14.51,14.51,0,0,0,11.15-7.39l42.81-77.49a14.52,14.52,0,0,0-25.42-14L124,105.75a14.57,14.57,0,0,0,.28,14.49c-14.46,4.38-39.34,20.47-39.52,79.29l3.68-10.72c2.65-7.79,5.27-15.6,8.06-23.38s5.81-15.48,10-22.87l1.63-2.75,2-2.7a51,51,0,0,1,4.24-4.65,42.38,42.38,0,0,1,4.82-4.12,23.41,23.41,0,0,1,2.75-1.76,12.16,12.16,0,0,1,1.55-.7,5.65,5.65,0,0,1,.88-.24,3,3,0,0,1,.53,0,1.23,1.23,0,0,1,.32,0,.88.88,0,0,1,.51.24.52.52,0,0,1-.71.75c.19.17.13.11.14.15s0,0-.06.06l-.21.16a5.07,5.07,0,0,0-.5.45c-.34.31-.65.69-1,1-.64.74-1.26,1.53-1.89,2.3l-3.74,4.76c-1.23,1.58-2.61,3.17-3.76,4.71l-1.68,2.28-1.53,2.54c-4,6.87-7.6,14.29-11.13,21.67s-6.79,14.94-9.83,22.58c-1.72,4.42-3.41,8.86-5,13.33,0,1.82.06,3.66.12,5.55C125.42,186.12,146.41,153.29,138.3,127.19Z"/><path class="cls-1" d="M108.08,65.19c0,.49.07,1,.07,1.49A18.09,18.09,0,1,1,96.82,49.92a39,39,0,1,0,11.26,15.27Z"/></svg>